<?xml version='1.0' encoding='iso-8859-1'?>
<svg version="1.1" xmlns="http://www.w3.org/2000/svg" viewBox="0 0 360.864 360.864" xmlns:xlink="http://www.w3.org/1999/xlink" enable-background="new 0 0 360.864 360.864">
  <path d="m360.537,327.738c-8.105-26.63-47.395-87.334-105.575-113.75-29.399-13.348-55.46-26.026-67.013-31.711 1.293-3.859 2.069-7.864 2.294-11.931 16.274-2.062 64.684-5.555 97.017,19.822 1.374,1.078 3.006,1.601 4.626,1.601 2.224,0 4.425-0.985 5.904-2.87 2.558-3.259 1.989-7.973-1.269-10.531-36.83-28.906-89.307-25.354-107.908-22.963-2.932-10.616-9.483-19.734-18.73-25.923-10.069-6.739-20.055-14.94-29.476-23.587-0.292-0.317-0.603-0.607-0.934-0.862-30.633-28.325-55.054-61.048-56.373-62.827-8.635-11.751-22.506-18.766-37.106-18.766-9.85,0-19.263,3.091-27.22,8.94-9.907,7.28-16.383,17.981-18.238,30.131-1.854,12.147 1.134,24.291 8.41,34.19 2.11,2.874 52.332,70.829 109.751,109.259 4.318,2.89 9.035,5.005 13.974,6.295 5.465,9.09 23.069,35.613 48.448,46.881l1.119,.497c27.149,12.052 68.178,30.266 83.257,48.465 1.483,1.79 3.623,2.715 5.779,2.715 1.686,0 3.382-0.565 4.781-1.725 3.189-2.643 3.633-7.371 0.99-10.561-17.326-20.91-58.591-39.229-88.721-52.605l-1.118-.496c-15.798-7.014-28.505-21.873-35.929-32.237 9.601-1.497 18.642-6.012 25.532-12.903 1.477-1.481 2.852-3.074 4.12-4.745 11.455,5.639 37.935,18.531 67.831,32.105 53.16,24.136 90.241,80.854 97.427,104.46 0.984,3.235 3.957,5.318 7.172,5.318 0.724,0 1.459-0.105 2.187-0.327 3.963-1.206 6.197-5.396 4.991-9.359zm-194.34-138.051c-5.753,5.754-13.75,9.054-21.94,9.054-1.737,0-3.455-0.161-5.148-0.447-0.143-0.032-0.287-0.057-0.431-0.081-4.131-0.759-8.084-2.34-11.636-4.718-0.408-0.273-0.815-0.553-1.222-0.83l9.375-7.676c3.205-2.625 3.676-7.35 1.052-10.555-2.625-3.206-7.351-3.675-10.554-1.052l-12.455,10.198c-22.78-17.424-43.781-38.627-59.975-56.661l13.557-9.536c3.389-2.383 4.203-7.061 1.82-10.449-2.383-3.387-7.061-4.203-10.449-1.819l-14.869,10.458c-13.18-15.419-21.468-26.636-22.287-27.752-4.906-6.675-6.92-14.86-5.671-23.047 1.25-8.188 5.615-15.4 12.293-20.307 5.364-3.943 11.705-6.027 18.337-6.027 9.846,0 19.198,4.728 25.038,12.675 1.293,1.744 23.533,31.543 52.595,59.548l-10.667,8.971c-3.17,2.666-3.579,7.397-0.913,10.567 1.483,1.764 3.606,2.673 5.744,2.673 1.704,0 3.417-0.578 4.823-1.76l12.103-10.178c8.641,7.67 17.688,14.9 26.822,21.014 6.885,4.607 11.563,11.62 13.173,19.747 1.61,8.125-0.041,16.392-4.648,23.274-1.133,1.693-2.436,3.282-3.867,4.716z"/>
</svg>
