<?xml version='1.0' encoding='iso-8859-1'?>
<svg version="1.1" xmlns="http://www.w3.org/2000/svg" viewBox="0 0 368.554 368.554" xmlns:xlink="http://www.w3.org/1999/xlink" enable-background="new 0 0 368.554 368.554">
  <g>
    <path d="M184.277,0C82.666,0,0,82.666,0,184.277s82.666,184.277,184.277,184.277c101.61,0,184.276-82.666,184.276-184.277   S285.887,0,184.277,0z M184.277,353.554C90.938,353.554,15,277.616,15,184.277S90.938,15,184.277,15   c93.339,0,169.276,75.938,169.276,169.277S277.616,353.554,184.277,353.554z"/>
    <path d="m106.149,101.419c12.761-2.445 19.606,0.38 27.533,3.652 6.596,2.723 13.846,5.716 24.193,5.715 3.562,0 7.492-0.355 11.887-1.197 17.163-3.29 24.967-10.861 31.852-17.54 6.154-5.972 11.47-11.128 24.23-13.575 4.067-0.78 6.733-4.709 5.954-8.778-0.78-4.069-4.717-6.737-8.778-5.954-17.163,3.29-24.967,10.86-31.852,17.54-6.155,5.971-11.47,11.128-24.23,13.575-12.76,2.445-19.605-0.38-27.533-3.652-8.867-3.66-18.917-7.81-36.081-4.518-4.068,0.78-6.733,4.709-5.954,8.778 0.782,4.069 4.712,6.734 8.779,5.954z"/>
    <path d="m169.344,280.186c-16.607-1.97-23.819-9.089-32.17-17.333-9.011-8.895-19.225-18.976-40.939-21.552-4.12-0.488-7.844,2.451-8.332,6.564-0.488,4.113 2.451,7.843 6.564,8.332 16.606,1.97 23.819,9.089 32.169,17.332 9.011,8.895 19.225,18.976 40.94,21.553 0.3,0.036 0.598,0.053 0.893,0.053 3.747,0 6.986-2.804 7.438-6.617 0.488-4.114-2.45-7.844-6.563-8.332z"/>
    <path d="m284.976,198.275c-16.692-1.002-24.307-7.69-33.122-15.435-9.513-8.356-20.294-17.827-42.123-19.138-4.146-0.25-7.688,2.902-7.936,7.037s2.902,7.688 7.037,7.936c16.692,1.002 24.307,7.69 33.122,15.435 9.513,8.356 20.294,17.827 42.123,19.138 0.153,0.009 0.305,0.014 0.456,0.014 3.937,0 7.24-3.069 7.479-7.05 0.249-4.135-2.901-7.689-7.036-7.937z"/>
    <path d="m117.739,173.663c0-14.474-11.776-26.25-26.25-26.25s-26.25,11.776-26.25,26.25 11.776,26.25 26.25,26.25 26.25-11.776 26.25-26.25zm-37.5,0c0-6.203 5.047-11.25 11.25-11.25s11.25,5.047 11.25,11.25-5.047,11.25-11.25,11.25-11.25-5.047-11.25-11.25z"/>
    <path d="m259.405,145.874c14.475,0 26.25-11.776 26.25-26.25s-11.775-26.25-26.25-26.25-26.25,11.776-26.25,26.25 11.775,26.25 26.25,26.25zm0-37.5c6.203,0 11.25,5.047 11.25,11.25s-5.047,11.25-11.25,11.25-11.25-5.047-11.25-11.25 5.047-11.25 11.25-11.25z"/>
    <path d="m208.384,219.597c-14.475,0-26.25,11.776-26.25,26.25s11.775,26.25 26.25,26.25 26.25-11.776 26.25-26.25-11.776-26.25-26.25-26.25zm0,37.5c-6.203,0-11.25-5.047-11.25-11.25s5.047-11.25 11.25-11.25 11.25,5.047 11.25,11.25-5.047,11.25-11.25,11.25z"/>
  </g>
</svg>
