<?xml version='1.0' encoding='iso-8859-1'?>
<svg version="1.1" xmlns="http://www.w3.org/2000/svg" viewBox="0 0 367.056 367.056" xmlns:xlink="http://www.w3.org/1999/xlink" enable-background="new 0 0 367.056 367.056">
  <path d="m324.702,123.624h-0.704c-10.421,0-19.968,3.79-27.354,10.055v-17.732c0-23.354-19-42.354-42.354-42.354h-0.704c-23.354,0-42.354,19-42.354,42.354v17.732c-7.386-6.264-16.933-10.055-27.354-10.055h-0.704c-10.421,0-19.968,3.79-27.354,10.055v-17.732c0-23.354-19-42.354-42.354-42.354h-0.704c-23.354,0-42.354,19-42.354,42.354v17.732c-7.386-6.264-16.933-10.055-27.354-10.055h-0.704c-23.35,0-42.35,19-42.35,42.354v85.132c0,23.354 19,42.354 42.354,42.354h0.704c23.354,0 42.354-19 42.354-42.354v-17.732c7.386,6.264 16.933,10.055 27.354,10.055h0.704c10.421,0 19.968-3.79 27.354-10.055v17.732c0,23.354 19,42.354 42.354,42.354h0.704c23.354,0 42.354-19 42.354-42.354v-17.732c7.386,6.264 16.933,10.055 27.354,10.055h0.704c10.421,0 19.968-3.79 27.354-10.055v17.732c0,23.354 19,42.354 42.354,42.354h0.704c23.354,0 42.354-19 42.354-42.354v-85.132c-0.004-23.354-19.004-42.354-42.358-42.354zm-254.291,127.485c0,15.083-12.271,27.354-27.354,27.354h-0.704c-15.082,0-27.353-12.271-27.353-27.354v-85.132c0-15.083 12.271-27.354 27.354-27.354h0.704c15.083,0 27.354,12.271 27.354,27.354v35.101 50.031zm43.057-22.677h-0.704c-15.083,0-27.354-12.271-27.354-27.354v-35.101-50.031c0-15.083 12.271-27.354 27.354-27.354h0.704c15.083,0 27.354,12.271 27.354,27.354v50.031 35.101c-0.001,15.083-12.271,27.354-27.354,27.354zm97.764,22.677c0,15.083-12.271,27.354-27.354,27.354h-0.704c-15.083,0-27.354-12.271-27.354-27.354v-50.031-35.101c0-15.083 12.271-27.354 27.354-27.354h0.704c15.083,0 27.354,12.271 27.354,27.354v35.101 50.031zm43.058-22.677h-0.704c-15.083,0-27.354-12.271-27.354-27.354v-35.101-50.031c0-15.083 12.271-27.354 27.354-27.354h0.704c15.083,0 27.354,12.271 27.354,27.354v50.031 35.101c0,15.083-12.271,27.354-27.354,27.354zm97.765,22.677c0,15.083-12.271,27.354-27.354,27.354h-0.704c-15.083,0-27.354-12.271-27.354-27.354v-50.031-35.101c0-15.083 12.271-27.354 27.354-27.354h0.704c15.083,0 27.354,12.271 27.354,27.354v85.132z"/>
</svg>
