<?xml version="1.0" encoding="iso-8859-1"?>
<!-- Generator: Adobe Illustrator 19.0.0, SVG Export Plug-In . SVG Version: 6.00 Build 0)  -->
<svg version="1.1" id="Layer_1" xmlns="http://www.w3.org/2000/svg" xmlns:xlink="http://www.w3.org/1999/xlink" x="0px" y="0px"
	 viewBox="0 0 475 475" style="enable-background:new 0 0 475 475;" xml:space="preserve">
<g>
	<g>
		<g>
			<path d="M237.5,0C106.542,0,0,106.542,0,237.5S106.542,475,237.5,475S475,368.458,475,237.5S368.458,0,237.5,0z M237.5,460
				C114.813,460,15,360.187,15,237.5S114.813,15,237.5,15S460,114.813,460,237.5S360.187,460,237.5,460z"/>
			<path d="M204.793,285.581c-6.114-6.114-13.534-10.424-21.686-12.636c-2.295-8.235-6.585-15.636-12.572-21.622l-25.663-25.663
				c-9.378-9.379-21.902-14.544-35.264-14.544s-25.885,5.166-35.264,14.544c-9.379,9.378-14.544,21.902-14.544,35.264
				s5.166,25.885,14.544,35.264l25.663,25.663c5.987,5.987,13.387,10.277,21.623,12.572c2.211,8.152,6.521,15.572,12.636,21.686
				l25.663,25.663c9.379,9.379,21.902,14.544,35.264,14.544s25.885-5.166,35.264-14.544c9.379-9.379,14.544-21.903,14.544-35.264
				s-5.165-25.885-14.544-35.264L204.793,285.581z M125.552,319.927c-5.735-1.603-10.755-4.5-14.938-8.683l-25.663-25.663
				c-6.546-6.546-10.151-15.303-10.151-24.657c0-9.355,3.605-18.111,10.151-24.657c6.546-6.546,15.303-10.151,24.657-10.151
				c9.354,0,18.111,3.605,24.657,10.151l25.663,25.664c4.183,4.183,7.08,9.203,8.682,14.938L125.552,319.927z M219.849,371.165
				c-6.546,6.546-15.302,10.151-24.657,10.151c-9.354,0-18.111-3.605-24.657-10.151l-25.663-25.664
				c-4.229-4.229-7.189-9.351-8.725-14.957l43.082-43.082c5.606,1.536,10.728,4.496,14.957,8.725l25.663,25.663
				c6.546,6.546,10.151,15.303,10.151,24.657C230,355.863,226.395,364.619,219.849,371.165z"/>
			<path d="M267.702,281.316c13.362,0,25.886-5.166,35.265-14.544l25.662-25.663c6.115-6.115,10.426-13.534,12.637-21.686
				c8.235-2.295,15.635-6.585,21.622-12.572l25.663-25.663h-0.001c9.38-9.379,14.545-21.902,14.545-35.264
				s-5.165-25.885-14.544-35.264c-9.379-9.379-21.902-14.544-35.265-14.544c-13.361,0-25.885,5.166-35.264,14.544l-25.662,25.663
				c-5.987,5.987-10.277,13.386-12.572,21.623c-8.152,2.211-15.571,6.521-21.687,12.636l-25.663,25.663
				c-9.379,9.379-14.544,21.902-14.544,35.264s5.166,25.885,14.544,35.264C241.817,276.15,254.341,281.316,267.702,281.316z
				 M302.966,146.93l25.664-25.663c6.545-6.546,15.302-10.151,24.656-10.151c9.355,0,18.112,3.605,24.658,10.151
				c6.546,6.546,10.15,15.302,10.15,24.657c0,9.354-3.604,18.111-10.15,24.657l-25.664,25.663c-4.183,4.183-9.203,7.08-14.938,8.682
				l-43.058-43.058C295.886,156.133,298.783,151.113,302.966,146.93z M243.046,206.851l25.663-25.663
				c4.229-4.229,9.35-7.189,14.957-8.725l43.083,43.083c-1.536,5.606-4.496,10.728-8.726,14.957l-25.663,25.663
				c-6.545,6.546-15.302,10.151-24.657,10.151c-9.354,0-18.111-3.605-24.657-10.151c-6.545-6.546-10.15-15.302-10.15-24.657
				C232.895,222.153,236.5,213.396,243.046,206.851z"/>
			<polygon points="360.034,335.49 337.302,311.274 314.62,335.473 297.452,317.114 286.496,327.359 314.606,357.421 
				337.31,333.199 360.034,357.405 388.231,327.37 377.296,317.104 			"/>
			<polygon points="161.783,127.41 184.508,151.615 212.705,121.581 201.769,111.314 184.508,129.7 161.774,105.485 
				139.093,129.684 121.925,111.325 110.969,121.57 139.081,151.632 			"/>
			<rect x="225.395" y="60.526" width="30.264" height="15"/>
			<rect x="68.026" y="169.474" width="30.263" height="15"/>
			<rect x="376.711" y="254.21" width="30.263" height="15"/>
			<rect x="261.711" y="393.421" width="30.263" height="15"/>
		</g>
	</g>
</g>
<g>
</g>
<g>
</g>
<g>
</g>
<g>
</g>
<g>
</g>
<g>
</g>
<g>
</g>
<g>
</g>
<g>
</g>
<g>
</g>
<g>
</g>
<g>
</g>
<g>
</g>
<g>
</g>
<g>
</g>
</svg>
