<?xml version="1.0" encoding="iso-8859-1"?>
<!-- Generator: Adobe Illustrator 18.0.0, SVG Export Plug-In . SVG Version: 6.00 Build 0)  -->
<!DOCTYPE svg PUBLIC "-//W3C//DTD SVG 1.1//EN" "http://www.w3.org/Graphics/SVG/1.1/DTD/svg11.dtd">
<svg version="1.1" id="Capa_1" xmlns="http://www.w3.org/2000/svg" xmlns:xlink="http://www.w3.org/1999/xlink" x="0px" y="0px"
	 viewBox="0 0 446.688 446.688" style="enable-background:new 0 0 446.688 446.688;" xml:space="preserve">
<g>
	<path d="M163.606,114.14L160.3,93.599c-0.622-3.865-3.443-7.012-7.218-8.052l-20.059-5.525l-13.887-15.493
		c-2.613-2.916-6.687-4.037-10.425-2.872L88.85,67.854l-20.06-5.525c-3.775-1.04-7.81,0.219-10.321,3.22L45.11,81.499l-19.861,6.196
		c-3.737,1.166-6.45,4.406-6.942,8.29l-2.614,20.641L2.334,132.577c-2.514,3.001-3.045,7.193-1.359,10.727l8.959,18.778
		l-2.614,20.641c-0.492,3.884,1.328,7.698,4.656,9.759l17.69,10.953l8.959,18.778c1.662,3.483,5.176,5.694,9.024,5.694
		c0.057,0,0.113,0,0.169-0.001l20.804-0.35l17.688,10.953c1.615,1,3.44,1.498,5.265,1.498c1.936,0,3.869-0.561,5.547-1.679
		l17.312-11.541l20.804-0.35c3.915-0.066,7.431-2.41,8.997-5.998l8.323-19.068l17.312-11.542c3.258-2.171,4.948-6.044,4.326-9.91
		l-3.307-20.542l8.324-19.068c1.566-3.588,0.895-7.761-1.719-10.676L163.606,114.14z M150.676,159.657l2.752,17.095l-14.407,9.605
		c-1.596,1.063-2.852,2.563-3.618,4.32l-6.927,15.869l-17.313,0.291c-1.917,0.032-3.784,0.615-5.379,1.678l-14.407,9.605
		l-14.722-9.115c-1.583-0.98-3.405-1.498-5.265-1.498c-0.056,0-0.112,0-0.168,0.001l-17.313,0.291l-7.456-15.627
		c-0.825-1.73-2.131-3.187-3.761-4.196l-14.723-9.115l2.176-17.178c0.24-1.901-0.07-3.833-0.896-5.563l-7.456-15.628l11.117-13.275
		c1.231-1.469,2.014-3.262,2.255-5.164l2.176-17.178l16.529-5.157c1.83-0.571,3.457-1.656,4.688-3.125l11.118-13.275l16.694,4.599
		c1.848,0.509,3.803,0.476,5.634-0.095l16.529-5.157l11.558,12.894c1.279,1.427,2.942,2.457,4.791,2.966l16.693,4.598l2.752,17.096
		c0.305,1.893,1.147,3.658,2.427,5.085l11.558,12.894l-6.928,15.869C150.617,155.824,150.371,157.764,150.676,159.657z"/>
	<path d="M443.611,234.804l-21.999-21.11l-7.093-29.652c-0.911-3.808-3.96-6.733-7.802-7.486l-29.918-5.866l-21.999-21.11
		c-2.826-2.711-6.973-3.524-10.611-2.08l-28.34,11.241l-29.919-5.866c-3.838-0.753-7.771,0.805-10.051,3.986l-17.765,24.779
		l-28.34,11.241c-3.64,1.443-6.102,4.877-6.301,8.788l-1.548,30.449l-17.765,24.778c-2.281,3.182-2.496,7.402-0.549,10.799
		l15.16,26.453l-1.549,30.449c-0.198,3.91,1.902,7.576,5.377,9.381l27.055,14.058l15.16,26.452c1.946,3.396,5.692,5.346,9.595,4.985
		l30.359-2.801l27.055,14.057c1.453,0.755,3.034,1.126,4.609,1.126c2.188,0,4.363-0.718,6.157-2.12l24.025-18.77l30.36-2.801
		c3.898-0.359,7.229-2.961,8.521-6.657l10.063-28.78l24.025-18.77c3.085-2.41,4.48-6.399,3.569-10.207l-7.093-29.651l10.063-28.78
		C447.419,241.624,446.436,237.514,443.611,234.804z M415.929,275.897l6.281,26.257l-21.275,16.621
		c-1.511,1.18-2.65,2.77-3.283,4.58l-8.911,25.485l-26.885,2.48c-1.909,0.176-3.727,0.897-5.237,2.077l-21.274,16.621
		l-23.958-12.448c-1.428-0.742-3.01-1.126-4.61-1.126c-0.306,0-0.612,0.014-0.919,0.042l-26.884,2.48l-13.425-23.424
		c-0.953-1.663-2.364-3.017-4.065-3.901l-23.957-12.448l1.371-26.963c0.097-1.915-0.357-3.817-1.312-5.48l-13.424-23.424
		l15.73-21.941c1.117-1.558,1.763-3.404,1.86-5.319l1.371-26.963l25.095-9.954c1.782-0.707,3.323-1.911,4.44-3.469l15.731-21.942
		l26.494,5.194c1.882,0.369,3.828,0.189,5.611-0.518l25.095-9.954l19.48,18.693c1.383,1.327,3.119,2.229,5,2.598l26.493,5.194
		l6.281,26.258c0.446,1.864,1.419,3.562,2.802,4.889l19.48,18.693l-8.912,25.485C415.582,272.079,415.482,274.032,415.929,275.897z"
		/>
	<circle cx="286.274" cy="230.487" r="17.274"/>
	<circle cx="310.952" cy="309.455" r="17.274"/>
	<path d="M124.744,293.149c-19.398,0-35.18,15.782-35.18,35.18s15.781,35.18,35.18,35.18c19.397,0,35.179-15.782,35.179-35.18
		S144.141,293.149,124.744,293.149z M124.744,343.508c-8.37,0-15.18-6.81-15.18-15.18s6.81-15.18,15.18-15.18
		c8.369,0,15.179,6.81,15.179,15.18S133.113,343.508,124.744,343.508z"/>
	<circle cx="365.242" cy="260.099" r="17.274"/>
	<circle cx="81.182" cy="147.299" r="17.274"/>
	<path d="M219.55,136.14c4.636-1.991,7.521-0.928,13.603,1.666c4.524,1.93,10.125,4.319,16.93,4.319
		c3.764,0,7.896-0.731,12.416-2.674c12.696-5.457,16.341-15.263,19.002-22.423c2.305-6.2,3.519-9.025,8.153-11.017
		c4.635-1.991,7.519-0.928,13.603,1.667c7.025,2.997,16.648,7.101,29.346,1.645c12.697-5.457,16.343-15.263,19.004-22.423
		c2.305-6.2,3.52-9.025,8.155-11.018c4.639-1.994,7.522-0.928,13.605,1.666c7.027,2.997,16.651,7.1,29.347,1.643
		c5.074-2.181,7.42-8.062,5.239-13.136s-8.062-7.418-13.136-5.239c-4.639,1.993-7.521,0.929-13.605-1.666
		c-7.027-2.997-16.651-7.1-29.347-1.643c-12.697,5.457-16.343,15.263-19.005,22.424c-2.305,6.2-3.52,9.025-8.154,11.017
		c-4.634,1.992-7.519,0.929-13.604-1.667c-7.026-2.996-16.65-7.1-29.345-1.645c-12.697,5.457-16.342,15.263-19.003,22.423
		c-2.305,6.2-3.519,9.024-8.152,11.016c-4.634,1.992-7.519,0.929-13.603-1.667c-7.026-2.998-16.65-7.101-29.346-1.645
		c-5.074,2.181-7.42,8.062-5.239,13.136C208.596,135.975,214.477,138.322,219.55,136.14z"/>
</g>
<g>
</g>
<g>
</g>
<g>
</g>
<g>
</g>
<g>
</g>
<g>
</g>
<g>
</g>
<g>
</g>
<g>
</g>
<g>
</g>
<g>
</g>
<g>
</g>
<g>
</g>
<g>
</g>
<g>
</g>
</svg>
