<?xml version="1.0" encoding="iso-8859-1"?>
<!-- Generator: Adobe Illustrator 19.0.0, SVG Export Plug-In . SVG Version: 6.00 Build 0)  -->
<svg version="1.1" id="Layer_1" xmlns="http://www.w3.org/2000/svg" xmlns:xlink="http://www.w3.org/1999/xlink" x="0px" y="0px"
	 viewBox="0 0 512 512" style="enable-background:new 0 0 512 512;" xml:space="preserve">
<g>
	<g>
		<path d="M60.055,319.3c-0.151-0.652-0.327-1.28-0.578-1.882c-0.25-0.603-0.577-1.206-0.928-1.733
			c-0.376-0.552-0.804-1.078-1.255-1.529c-2.335-2.336-5.798-3.414-9.061-2.762c-0.627,0.152-1.279,0.326-1.882,0.579
			c-0.602,0.25-1.179,0.576-1.732,0.929c-0.552,0.375-1.054,0.777-1.531,1.255c-0.452,0.451-0.879,0.978-1.229,1.529
			c-0.377,0.527-0.678,1.13-0.929,1.733c-0.251,0.603-0.452,1.23-0.577,1.882c-0.126,0.627-0.201,1.304-0.201,1.958
			c0,2.635,1.08,5.22,2.936,7.076c0.477,0.478,0.979,0.904,1.531,1.255c0.553,0.377,1.13,0.679,1.732,0.929
			c0.603,0.252,1.255,0.451,1.882,0.578c0.653,0.125,1.305,0.174,1.958,0.174c2.66,0,5.245-1.054,7.103-2.936
			c1.882-1.855,2.936-4.441,2.936-7.076C60.231,320.604,60.18,319.928,60.055,319.3z"/>
	</g>
</g>
<g>
	<g>
		<path d="M137.608,424.587c-2.335-2.336-5.798-3.414-9.061-2.762c-0.627,0.152-1.279,0.326-1.882,0.578
			c-0.602,0.25-1.179,0.576-1.732,0.929c-0.552,0.375-1.054,0.801-1.531,1.255c-1.857,1.855-2.936,4.441-2.936,7.103
			c0,0.652,0.075,1.304,0.201,1.956c0.125,0.627,0.326,1.255,0.577,1.882c0.251,0.603,0.552,1.181,0.929,1.733
			c0.35,0.551,0.777,1.054,1.229,1.532c1.882,1.855,4.467,2.909,7.103,2.909c0.652,0,1.33-0.049,1.957-0.174
			c0.653-0.128,1.28-0.326,1.882-0.579c0.603-0.25,1.204-0.551,1.732-0.929c0.553-0.351,1.08-0.777,1.532-1.228
			c0.477-0.478,0.879-0.98,1.255-1.532c0.35-0.551,0.678-1.13,0.928-1.733c0.251-0.627,0.428-1.255,0.553-1.882
			c0.151-0.652,0.201-1.304,0.201-1.956C140.544,429.028,139.49,426.442,137.608,424.587z"/>
	</g>
</g>
<g>
	<g>
		<path d="M238,484.822c-0.452-0.453-0.979-0.88-1.532-1.255c-0.527-0.353-1.129-0.679-1.732-0.929
			c-0.602-0.253-1.229-0.427-1.882-0.552c-1.279-0.277-2.635-0.277-3.916,0c-0.652,0.125-1.279,0.299-1.882,0.552
			c-0.602,0.25-1.179,0.576-1.732,0.929c-0.552,0.375-1.054,0.801-1.531,1.255c-1.857,1.855-2.936,4.466-2.936,7.103
			c0,0.652,0.075,1.304,0.201,1.956c0.125,0.628,0.326,1.282,0.577,1.882c0.251,0.603,0.552,1.181,0.929,1.733
			c0.35,0.551,0.777,1.054,1.229,1.532c0.477,0.451,0.979,0.877,1.531,1.228c0.553,0.378,1.13,0.679,1.732,0.929
			c0.603,0.253,1.255,0.451,1.882,0.578c0.653,0.125,1.305,0.201,1.958,0.201c2.635,0,5.221-1.081,7.103-2.936
			c0.451-0.478,0.879-0.98,1.255-1.532c0.35-0.551,0.652-1.13,0.903-1.733c0.251-0.601,0.452-1.255,0.577-1.882
			c0.125-0.652,0.201-1.304,0.201-1.956C240.936,489.263,239.857,486.678,238,484.822z"/>
	</g>
</g>
<g>
	<g>
		<path d="M87.412,103.332c-2.335-2.336-5.798-3.414-9.061-2.735c-0.652,0.125-1.28,0.299-1.882,0.552
			c-0.602,0.25-1.179,0.576-1.732,0.929c-0.552,0.375-1.054,0.777-1.531,1.255c-1.857,1.855-2.936,4.441-2.936,7.103
			c0,0.652,0.075,1.304,0.201,1.956c0.125,0.627,0.326,1.282,0.577,1.882c0.251,0.603,0.552,1.181,0.929,1.733
			c0.35,0.551,0.777,1.054,1.229,1.505c1.882,1.882,4.467,2.963,7.103,2.963c2.635,0,5.245-1.081,7.103-2.963
			c0.477-0.451,0.879-0.953,1.255-1.505c0.35-0.551,0.678-1.13,0.928-1.733c0.251-0.601,0.428-1.255,0.553-1.882
			c0.151-0.652,0.201-1.304,0.201-1.956C90.348,107.773,89.294,105.187,87.412,103.332z"/>
	</g>
</g>
<g>
	<g>
		<path d="M197.843,12.979c-2.335-2.336-5.798-3.414-9.061-2.735c-0.627,0.125-1.279,0.299-1.882,0.552
			c-0.602,0.25-1.179,0.576-1.732,0.929c-0.552,0.375-1.054,0.777-1.531,1.255c-1.857,1.855-2.936,4.441-2.936,7.103
			c0,2.635,1.08,5.22,2.936,7.076c0.477,0.478,0.979,0.904,1.531,1.255c0.553,0.378,1.13,0.679,1.732,0.929
			c0.603,0.253,1.255,0.453,1.882,0.578c0.653,0.125,1.305,0.201,1.958,0.201c0.652,0,1.33-0.076,1.957-0.201
			c0.653-0.125,1.28-0.326,1.882-0.578c0.603-0.25,1.18-0.551,1.732-0.929c0.553-0.351,1.055-0.777,1.532-1.255
			c1.857-1.856,2.936-4.441,2.936-7.076C200.78,17.42,199.726,14.834,197.843,12.979z"/>
	</g>
</g>
<g>
	<g>
		<path d="M321.049,198.805c-0.125-0.627-0.301-1.255-0.553-1.858c-0.25-0.603-0.577-1.206-0.928-1.733
			c-0.376-0.552-0.778-1.078-1.255-1.529c-0.452-0.453-0.979-0.88-1.532-1.255c-0.527-0.353-1.129-0.679-1.732-0.929
			c-0.602-0.253-1.229-0.427-1.882-0.552c-1.279-0.277-2.61-0.277-3.916,0c-0.652,0.125-1.28,0.299-1.882,0.552
			c-0.602,0.25-1.179,0.576-1.732,0.929c-0.552,0.375-1.054,0.801-1.531,1.255c-0.452,0.451-0.879,0.978-1.229,1.529
			c-0.378,0.527-0.678,1.13-0.929,1.733c-0.251,0.603-0.452,1.23-0.577,1.858c-0.126,0.652-0.201,1.328-0.201,1.983
			c0,0.652,0.075,1.304,0.201,1.956c0.125,0.627,0.326,1.255,0.577,1.882c0.251,0.603,0.552,1.181,0.929,1.733
			c0.35,0.551,0.777,1.054,1.229,1.505c1.882,1.882,4.467,2.963,7.103,2.963c0.652,0,1.33-0.076,1.957-0.201
			c0.653-0.125,1.281-0.326,1.882-0.578c0.603-0.25,1.204-0.551,1.732-0.929c0.553-0.351,1.08-0.777,1.532-1.255
			c0.477-0.451,0.879-0.953,1.255-1.505c0.35-0.551,0.652-1.13,0.903-1.733c0.251-0.627,0.452-1.255,0.577-1.882
			c0.125-0.652,0.201-1.304,0.201-1.956C321.25,200.134,321.174,199.457,321.049,198.805z"/>
	</g>
</g>
<g>
	<g>
		<path d="M231.05,180.702c-11.998,0-22.827,5.307-30.191,13.659c-7.365-8.353-18.01-13.659-30.007-13.659
			c-22.142,0-40.045,17.981-40.045,40.081v120.62c0,22.103,17.867,40.083,40.009,40.083c11.998,0,22.679-5.306,30.044-13.659
			c7.364,8.353,18.23,13.659,30.228,13.659c22.142,0,40.268-17.98,40.268-40.083v-120.62
			C271.355,198.683,253.193,180.702,231.05,180.702z M191.042,341.403c0,11.032-9.007,20.005-20.078,20.005
			s-20.078-8.973-20.078-20.005v-120.62c0-11.03,9.007-20.003,20.078-20.003c11.071,0,20.078,8.973,20.078,20.003V341.403z
			 M251.277,341.403c0,11.032-9.007,20.005-20.078,20.005c-11.071,0-20.078-8.973-20.078-20.005v-120.62
			c0-11.03,9.007-20.003,20.078-20.003c11.071,0,20.078,8.973,20.078,20.003V341.403z"/>
	</g>
</g>
<g>
	<g>
		<path d="M498.341,411.406c8.353-7.363,13.659-18.12,13.659-30.118c0-22.142-17.98-40.353-40.082-40.353h-120.62
			c-22.102,0-40.082,18.211-40.082,40.353c0,11.998,5.307,22.853,13.659,30.218c-8.353,7.365-13.659,17.973-13.659,29.968
			c0,22.142,17.98,40.01,40.082,40.01h120.62c22.102,0,40.082-17.819,40.082-39.961C512,429.528,506.694,418.771,498.341,411.406z
			 M471.918,461.406h-120.62c-11.031,0-20.004-9.007-20.004-20.078c0-11.071,8.973-20.078,20.004-20.078h120.62
			c11.031,0,20.004,9.007,20.004,20.078C491.922,452.398,482.949,461.406,471.918,461.406z M471.918,401.17h-120.62
			c-11.031,0-20.004-9.007-20.004-20.078c0-11.071,8.973-20.078,20.004-20.078h120.62c11.031,0,20.004,9.007,20.004,20.078
			C491.922,392.163,482.949,401.17,471.918,401.17z"/>
	</g>
</g>
<g>
	<g>
		<path d="M40.157,391.526C18.015,391.526,0,409.541,0,431.683c0,22.142,18.015,40.157,40.157,40.157
			c22.142,0,40.157-18.015,40.157-40.157C80.314,409.541,62.299,391.526,40.157,391.526z M40.157,451.761
			c-11.071,0-20.078-9.007-20.078-20.078c0-11.071,9.007-20.078,20.078-20.078c11.071,0,20.078,9.007,20.078,20.078
			C60.235,442.754,51.228,451.761,40.157,451.761z"/>
	</g>
</g>
<g>
	<g>
		<path d="M471.843,10.035c-22.142,0-40.157,18.015-40.157,40.157c0,22.142,18.015,40.157,40.157,40.157
			c22.142,0,40.157-18.015,40.157-40.157C512,28.05,493.985,10.035,471.843,10.035z M471.843,70.271
			c-11.071,0-20.078-9.007-20.078-20.078c0-11.071,9.007-20.078,20.078-20.078c11.071,0,20.078,9.007,20.078,20.078
			C491.922,61.264,482.914,70.271,471.843,70.271z"/>
	</g>
</g>
<g>
	<g>
		<path d="M471.648,289.165c-1.088-5.438-6.379-8.975-11.814-7.875c-0.347,0.071-35.429,6.782-60.939-14.13
			c-18.211-14.929-27.445-40.64-27.445-76.419c0-44.417-11.761-77.463-34.957-98.225c-29.064-26.015-65.029-22.353-66.544-22.184
			c-5.494,0.61-9.439,5.547-8.852,11.042c0.587,5.497,5.518,9.48,11.028,8.919c0.287-0.03,28.94-2.708,51.18,17.368
			c18.624,16.809,28.066,44.762,28.066,83.081c0,42.083,11.706,73.02,34.794,91.946c20.071,16.456,43.981,19.752,59.919,19.752
			c10.088,0,16.983-1.321,17.688-1.463C469.21,299.891,472.735,294.602,471.648,289.165z"/>
	</g>
</g>
<g>
</g>
<g>
</g>
<g>
</g>
<g>
</g>
<g>
</g>
<g>
</g>
<g>
</g>
<g>
</g>
<g>
</g>
<g>
</g>
<g>
</g>
<g>
</g>
<g>
</g>
<g>
</g>
<g>
</g>
</svg>
