<?xml version="1.0" encoding="iso-8859-1"?>
<!-- Generator: Adobe Illustrator 18.0.0, SVG Export Plug-In . SVG Version: 6.00 Build 0)  -->
<!DOCTYPE svg PUBLIC "-//W3C//DTD SVG 1.1//EN" "http://www.w3.org/Graphics/SVG/1.1/DTD/svg11.dtd">
<svg version="1.1" id="Capa_1" xmlns="http://www.w3.org/2000/svg" xmlns:xlink="http://www.w3.org/1999/xlink" x="0px" y="0px"
	 viewBox="0 0 467.072 467.072" style="enable-background:new 0 0 467.072 467.072;" xml:space="preserve">
<g>
	<path d="M121.746,115.065c-2.332-0.305-4.459,1.342-4.759,3.67c-5.321,41.207-7.037,83.14-5.103,124.637
		c0.106,2.277,1.986,4.052,4.242,4.052c0.067,0,0.134-0.001,0.201-0.004c2.345-0.109,4.157-2.099,4.048-4.443
		c-1.912-41.002-0.215-82.437,5.041-123.152C125.718,117.496,124.074,115.365,121.746,115.065z"/>
	<path d="M121.836,266.122c-0.186-2.34-2.232-4.077-4.574-3.899c-2.34,0.186-4.086,2.234-3.899,4.574
		c0.921,11.56,2.14,23.25,3.624,34.745c0.276,2.143,2.104,3.706,4.209,3.706c0.182,0,0.365-0.012,0.55-0.036
		c2.328-0.3,3.971-2.431,3.671-4.759C123.951,289.095,122.746,277.545,121.836,266.122z"/>
	<path d="M183.375,117.252c2.264-0.622,3.595-2.96,2.974-5.224c-0.622-2.264-2.96-3.592-5.224-2.974l-12.482,3.426
		c-0.502-6.979-3.077-13.349-7.532-18.413c-3.228-3.669-7.259-6.414-11.824-8.121l4.077-15.728c0.589-2.272-0.775-4.591-3.047-5.18
		c-2.271-0.591-4.591,0.775-5.18,3.047l-4.142,15.976c-1.096-0.104-2.209-0.159-3.338-0.159h-3.128
		c-5.885,0-11.618,1.402-16.835,3.868l-3.686-13.103c-0.636-2.26-2.984-3.577-5.242-2.94c-2.259,0.636-3.576,2.982-2.94,5.242
		l4.326,15.378c-6.334,4.8-11.316,11.326-13.98,18.743l-16.701-6.561c-2.185-0.859-4.651,0.217-5.509,2.402
		c-0.858,2.185,0.217,4.651,2.402,5.509l17.862,7.017c-1.438,11.224-2.61,22.476-3.512,33.747l-20.187-2.926
		c-2.318-0.333-4.479,1.273-4.815,3.597c-0.337,2.323,1.273,4.479,3.597,4.815l20.791,3.013
		c-0.773,11.381-1.273,22.777-1.501,34.178l-21.023,1.7c-2.339,0.189-4.083,2.239-3.894,4.579c0.18,2.223,2.04,3.907,4.231,3.907
		c0.115,0,0.231-0.004,0.348-0.014l20.225-1.635c-0.091,11.353,0.089,22.707,0.539,34.052l-18.539,0.431
		c-2.347,0.055-4.204,2.002-4.15,4.348c0.054,2.313,1.946,4.151,4.247,4.151c0.034,0,0.067,0,0.101-0.001l18.722-0.436
		c0.485,9.395,1.16,18.781,2.017,28.153l-18.3,6.71c-2.204,0.808-3.336,3.249-2.527,5.453c0.631,1.721,2.258,2.788,3.991,2.788
		c0.486,0,0.98-0.084,1.462-0.261l16.229-5.951c0.612,5.899,1.276,11.794,2.036,17.679c0.777,6.046,3.099,11.736,6.527,16.696
		l-14.72,16.045c-1.586,1.729-1.471,4.418,0.259,6.005c0.816,0.749,1.845,1.118,2.872,1.118c1.149,0,2.294-0.463,3.133-1.377
		l14.022-15.285c7.155,6.835,16.718,11.243,26.806,11.599l3.904,16.46c0.463,1.954,2.207,3.27,4.132,3.27
		c0.325,0,0.655-0.038,0.984-0.116c2.284-0.542,3.696-2.832,3.154-5.116l-3.494-14.729c7.568-0.92,14.244-4.31,19.115-9.789
		l12.553,8.369c0.725,0.483,1.544,0.714,2.354,0.714c1.373,0,2.721-0.665,3.54-1.893c1.302-1.953,0.774-4.592-1.179-5.894
		l-12.58-8.386c2.636-5.576,3.599-12.018,2.73-18.778c-1.125-8.708-2.065-17.435-2.863-26.174l14.656,3.664
		c0.346,0.086,0.693,0.128,1.034,0.128c1.904,0,3.637-1.289,4.12-3.22c0.569-2.277-0.815-4.584-3.092-5.154l-17.488-4.372
		c-1.048-13.366-1.705-26.758-1.99-40.157l14.816,3.457c0.325,0.076,0.649,0.112,0.97,0.112c1.93,0,3.677-1.324,4.135-3.285
		c0.534-2.286-0.887-4.571-3.173-5.105l-16.876-3.938c-0.13-14.651,0.193-29.305,0.976-43.938l14.979,2.219
		c0.211,0.031,0.42,0.046,0.628,0.046c2.072,0,3.886-1.517,4.199-3.628c0.344-2.322-1.259-4.483-3.582-4.827l-15.73-2.33
		c0.932-14.213,2.299-28.401,4.092-42.544L183.375,117.252z M137.656,327.873h-3.128c-15.321,0-29.878-12.556-31.787-27.42
		c-7.738-59.928-7.738-120.701,0-180.632c1.909-14.861,16.465-27.417,31.787-27.417h3.128c6.88,0,12.943,2.585,17.072,7.279
		c4.341,4.934,6.211,11.702,5.267,19.053c-7.831,60.651-7.831,122.156-0.001,182.804c0.945,7.354-0.926,14.122-5.266,19.055
		C150.6,325.288,144.537,327.873,137.656,327.873z"/>
	<path d="M290.117,273.859c-2.345,0.109-4.157,2.099-4.048,4.443c1.912,41.002,0.215,82.437-5.041,123.152
		c-0.301,2.328,1.343,4.459,3.67,4.759c0.185,0.024,0.368,0.036,0.55,0.036c2.105,0,3.933-1.563,4.21-3.706
		c5.321-41.207,7.037-83.14,5.103-124.637C294.451,275.562,292.452,273.759,290.117,273.859z"/>
	<path d="M284.608,255.157c0.177,2.225,2.038,3.913,4.232,3.913c0.113,0,0.227-0.004,0.342-0.013
		c2.34-0.186,4.085-2.234,3.899-4.574c-0.921-11.56-2.14-23.25-3.625-34.745c-0.301-2.328-2.431-3.972-4.759-3.67
		c-2.328,0.3-3.971,2.431-3.67,4.759C282.494,232.183,283.699,243.734,284.608,255.157z"/>
	<path d="M338.185,315.222l-20.225,1.636c0.091-11.354-0.089-22.707-0.539-34.053l18.539-0.431c2.347-0.055,4.205-2.001,4.15-4.348
		c-0.055-2.347-2.017-4.197-4.348-4.15l-18.722,0.436c-0.485-9.395-1.16-18.781-2.017-28.153l18.3-6.71
		c2.204-0.808,3.335-3.249,2.527-5.453c-0.808-2.204-3.25-3.335-5.453-2.527l-16.229,5.951c-0.612-5.899-1.276-11.794-2.036-17.679
		c-0.777-6.046-3.099-11.736-6.527-16.696l14.72-16.045c1.586-1.73,1.471-4.418-0.259-6.005c-1.729-1.586-4.417-1.472-6.005,0.259
		l-14.022,15.285c-7.155-6.835-16.718-11.243-26.806-11.599l-3.904-16.46c-0.542-2.284-2.833-3.694-5.116-3.154
		c-2.284,0.542-3.696,2.832-3.154,5.116l3.494,14.73c-7.568,0.919-14.244,4.31-19.115,9.788l-12.553-8.369
		c-1.952-1.302-4.591-0.774-5.894,1.179c-1.302,1.953-0.774,4.592,1.179,5.894l12.58,8.386c-2.636,5.576-3.599,12.018-2.73,18.778
		c1.124,8.708,2.065,17.436,2.863,26.174l-14.656-3.664c-2.279-0.567-4.585,0.815-5.154,3.092c-0.569,2.277,0.815,4.585,3.092,5.154
		l17.488,4.372c1.048,13.366,1.705,26.758,1.99,40.156l-14.815-3.457c-2.284-0.535-4.571,0.886-5.105,3.173
		c-0.534,2.286,0.887,4.571,3.173,5.104l16.876,3.938c0.13,14.651-0.193,29.304-0.975,43.939l-14.979-2.219
		c-2.319-0.344-4.482,1.259-4.827,3.582c-0.344,2.322,1.259,4.483,3.581,4.827l15.73,2.331c-0.932,14.212-2.299,28.401-4.092,42.543
		l-15.141,4.156c-2.264,0.622-3.595,2.96-2.974,5.224c0.518,1.887,2.229,3.126,4.096,3.126c0.373,0,0.751-0.049,1.127-0.152
		l12.482-3.426c0.503,6.978,3.077,13.349,7.532,18.413c3.227,3.669,7.259,6.414,11.824,8.121l-4.077,15.727
		c-0.589,2.272,0.775,4.591,3.047,5.18c0.357,0.093,0.716,0.137,1.069,0.137c1.89,0,3.615-1.27,4.111-3.184l4.142-15.976
		c1.096,0.104,2.209,0.159,3.338,0.159h3.128c5.885,0,11.618-1.402,16.835-3.868l3.686,13.102c0.527,1.875,2.233,3.1,4.089,3.1
		c0.381,0,0.769-0.051,1.153-0.16c2.259-0.636,3.576-2.983,2.94-5.242l-4.326-15.378c6.334-4.8,11.316-11.326,13.98-18.743
		l16.701,6.561c0.51,0.201,1.036,0.295,1.553,0.295c1.696,0,3.299-1.022,3.957-2.697c0.858-2.185-0.217-4.651-2.402-5.509
		l-17.862-7.017c1.438-11.224,2.61-22.476,3.512-33.747l20.187,2.926c0.207,0.03,0.412,0.044,0.615,0.044
		c2.077,0,3.894-1.525,4.201-3.641c0.337-2.323-1.273-4.479-3.597-4.815l-20.791-3.013c0.773-11.381,1.273-22.777,1.501-34.178
		l21.023-1.7c2.339-0.189,4.083-2.239,3.894-4.579C342.575,316.776,340.517,315.032,338.185,315.222z M271.916,428.875h-3.128
		c-6.88,0-12.943-2.586-17.072-7.279c-4.341-4.934-6.211-11.702-5.267-19.053c7.831-60.651,7.831-122.156,0.001-182.804
		c-0.945-7.354,0.926-14.122,5.266-19.055c4.129-4.694,10.192-7.279,17.073-7.279h3.128c15.321,0,29.877,12.556,31.787,27.42
		c7.738,59.928,7.738,120.701,0,180.632C301.794,416.319,287.237,428.874,271.916,428.875z"/>
	<path d="M376.389,109.741c-1.064-2.092-3.623-2.926-5.715-1.862c-2.092,1.064-2.926,3.622-1.862,5.715
		c18.604,36.588,34.097,75.054,46.049,114.33c0.558,1.834,2.243,3.014,4.064,3.014c0.41,0,0.827-0.06,1.239-0.185
		c2.246-0.684,3.512-3.058,2.829-5.303C410.897,185.7,395.217,146.77,376.389,109.741z"/>
	<path d="M347.815,58.816c-1.232-1.999-3.85-2.62-5.848-1.389c-1.998,1.231-2.62,3.849-1.389,5.848
		c6.007,9.75,11.855,19.783,17.382,29.821c0.774,1.406,2.228,2.201,3.727,2.201c0.693,0,1.396-0.17,2.046-0.528
		c2.056-1.132,2.805-3.717,1.673-5.773C359.814,78.837,353.896,68.683,347.815,58.816z"/>
	<path d="M462.611,214.478l-19.167,0.95c-3.306-10.822-6.864-21.561-10.678-32.206l19.604-5.634
		c2.256-0.648,3.559-3.003,2.911-5.258c-0.648-2.256-3.005-3.56-5.258-2.911l-20.191,5.803
		c-3.976-10.692-8.207-21.285-12.688-31.771l18.464-10.195c2.055-1.135,2.801-3.72,1.667-5.775
		c-1.135-2.055-3.721-2.801-5.775-1.667l-17.763,9.808c-4.586-10.386-9.419-20.662-14.495-30.818l16.721-8.017
		c2.117-1.015,3.01-3.553,1.995-5.67c-1.015-2.117-3.553-3.008-5.67-1.995l-16.886,8.096c-4.306-8.364-8.781-16.642-13.415-24.833
		l13.921-13.642c1.676-1.643,1.704-4.334,0.061-6.01c-1.643-1.676-4.333-1.705-6.01-0.061l-12.346,12.099
		c-2.984-5.126-6.013-10.226-9.126-15.278c-3.161-5.138-7.593-9.395-12.815-12.539l6.818-20.675
		c0.735-2.229-0.476-4.632-2.705-5.367c-2.23-0.738-4.632,0.476-5.367,2.705l-6.501,19.713c-4.497-1.571-9.326-2.431-14.292-2.431
		c-5.265,0-10.27,0.973-14.906,2.87l-10.33-13.401c-1.433-1.858-4.102-2.204-5.961-0.771c-1.859,1.433-2.204,4.102-0.771,5.961
		l9.242,11.99c-6.52,3.951-11.211,9.786-13.398,16.783l-14.884-2.466c-2.324-0.388-4.504,1.183-4.888,3.498
		c-0.384,2.316,1.183,4.504,3.498,4.888l14.915,2.471c-0.11,6.167,1.662,12.435,5.233,18.24c4.606,7.475,9.053,15.043,13.374,22.681
		l-14.867,2.688c-2.31,0.417-3.844,2.628-3.426,4.938c0.371,2.054,2.161,3.495,4.177,3.495c0.251,0,0.505-0.022,0.761-0.069
		l17.739-3.207c6.452,11.753,12.558,23.689,18.328,35.786l-14.926,2.941c-2.303,0.454-3.802,2.688-3.348,4.992
		c0.399,2.025,2.176,3.429,4.165,3.429c0.272,0,0.549-0.026,0.826-0.081l17.003-3.351c6.144,13.301,11.875,26.791,17.18,40.452
		l-14.566,4.137c-2.258,0.642-3.568,2.992-2.927,5.25c0.531,1.87,2.234,3.09,4.086,3.09c0.384,0,0.775-0.052,1.163-0.163
		l15.298-4.345c4.995,13.338,9.584,26.834,13.765,40.463l-12.092,10.015c-1.808,1.497-2.059,4.176-0.562,5.984
		c0.84,1.015,2.053,1.539,3.275,1.539c0.955,0,1.916-0.32,2.708-0.977l9.988-8.273c5.48,10.089,15.306,16.308,26.544,16.308
		c0.664,0,1.328-0.028,1.991-0.072l2.752,16.019c0.355,2.07,2.152,3.531,4.184,3.531c0.239,0,0.481-0.02,0.725-0.062
		c2.313-0.397,3.866-2.595,3.469-4.908l-2.794-16.266c1.042-0.357,2.079-0.762,3.108-1.227l2.851-1.287
		c5.364-2.421,10.013-6.056,13.755-10.449l8.747,10.428c0.84,1.002,2.045,1.518,3.258,1.518c0.963,0,1.933-0.326,2.729-0.994
		c1.798-1.508,2.033-4.189,0.524-5.987l-10.267-12.239c3.8-6.98,5.657-14.977,5.036-22.833l17.921-0.888
		c2.344-0.116,4.15-2.111,4.034-4.455C466.951,216.168,464.971,214.355,462.611,214.478z M417.832,256.664l-2.851,1.287
		c-3.285,1.481-6.628,2.233-9.939,2.233c-9.751,0-18.094-6.693-21.253-17.048c-17.804-58.505-43.097-114.568-75.176-166.63
		c-3.885-6.315-4.963-13.253-3.036-19.535c1.833-5.977,6.297-10.827,12.569-13.656l2.851-1.286
		c3.811-1.719,8.177-2.628,12.627-2.628c11.342,0,22.185,5.71,27.624,14.55c31.698,51.444,56.69,106.84,74.283,164.651
		C439.903,232.932,431.798,250.363,417.832,256.664z"/>
	<path d="M56.25,126.904h-52c-2.347,0-4.25,1.903-4.25,4.25c0,2.347,1.903,4.25,4.25,4.25h52c2.347,0,4.25-1.903,4.25-4.25
		C60.5,128.806,58.597,126.904,56.25,126.904z"/>
	<path d="M434.25,364.904h-59c-2.347,0-4.25,1.903-4.25,4.25c0,2.347,1.903,4.25,4.25,4.25h59c2.347,0,4.25-1.903,4.25-4.25
		C438.5,366.806,436.597,364.904,434.25,364.904z"/>
	<path d="M258.25,130.404c2.347,0,4.25-1.903,4.25-4.25c0-2.347-1.903-4.25-4.25-4.25h-38c-2.347,0-4.25,1.903-4.25,4.25
		c0,2.347,1.903,4.25,4.25,4.25H258.25z"/>
	<path d="M161.25,406.904h-60c-2.347,0-4.25,1.903-4.25,4.25c0,2.347,1.903,4.25,4.25,4.25h60c2.347,0,4.25-1.903,4.25-4.25
		C165.5,408.806,163.597,406.904,161.25,406.904z"/>
</g>
<g>
</g>
<g>
</g>
<g>
</g>
<g>
</g>
<g>
</g>
<g>
</g>
<g>
</g>
<g>
</g>
<g>
</g>
<g>
</g>
<g>
</g>
<g>
</g>
<g>
</g>
<g>
</g>
<g>
</g>
</svg>
