<?xml version="1.0" encoding="iso-8859-1"?>
<!-- Generator: Adobe Illustrator 19.0.0, SVG Export Plug-In . SVG Version: 6.00 Build 0)  -->
<svg version="1.1" id="Layer_1" xmlns="http://www.w3.org/2000/svg" xmlns:xlink="http://www.w3.org/1999/xlink" x="0px" y="0px"
	 viewBox="0 0 512.002 512.002" style="enable-background:new 0 0 512.002 512.002;" xml:space="preserve">
<g>
	<g>
		<g>
			<path d="M503.468,110.933h-22.704c-2.698-17.117-9.958-33.083-21.18-46.451l12.802-12.797c3.328-3.328,3.328-8.73,0-12.066
				c-3.337-3.328-8.738-3.328-12.066,0l-12.818,12.813c-13.648-11.43-29.745-18.467-46.421-21.113l-0.013-22.791
				c0-4.71-3.823-8.525-8.533-8.525h-0.008c-4.71,0-8.525,3.823-8.525,8.533l0.012,21.61c-21.277,0.418-42.431,7.841-59.677,22.284
				l-18.99-18.997c-3.336-3.337-8.738-3.337-12.066,0c-3.337,3.328-3.337,8.738,0,12.066l18.708,18.715l-25.053,25.054
				L274.408,76.74c-3.328-3.328-8.73-3.328-12.066,0c-3.328,3.337-3.328,8.738,0,12.066l12.528,12.528l-25.052,25.053
				l-18.713-18.713c-3.337-3.337-8.738-3.337-12.066,0c-3.337,3.337-3.337,8.738,0,12.066l18.713,18.713l-25.056,25.057
				l-12.529-12.529c-3.328-3.337-8.73-3.337-12.066,0c-3.328,3.328-3.328,8.73,0,12.066l12.529,12.529l-25.05,25.051l-18.716-18.716
				c-3.337-3.337-8.738-3.337-12.066,0c-3.337,3.337-3.337,8.738,0,12.066l18.716,18.716l-25.056,25.057l-12.532-12.532
				c-3.328-3.328-8.73-3.328-12.066,0c-3.328,3.336-3.328,8.738,0,12.066l12.532,12.532l-25.052,25.053l-18.717-18.717
				c-3.337-3.336-8.738-3.336-12.066,0c-3.337,3.337-3.337,8.738,0,12.066l18.717,18.717l-25.054,25.054l-12.536-12.53
				c-3.328-3.337-8.73-3.337-12.066,0c-3.328,3.328-3.328,8.738,0,12.066l12.803,12.797C38.351,341.083,30.507,361.926,30.076,384
				H8.533C3.814,384,0,387.823,0,392.533s3.814,8.533,8.533,8.533H31.24c2.697,17.114,9.957,33.08,21.178,46.452l-12.8,12.794
				c-3.337,3.328-3.337,8.73,0,12.066c1.664,1.664,3.849,2.5,6.033,2.5c2.185,0,4.369-0.836,6.033-2.5l12.813-12.807
				c13.651,11.436,29.753,18.47,46.437,21.112v22.783c0,4.71,3.814,8.533,8.533,8.533s8.533-3.823,8.533-8.533v-21.614
				c21.271-0.421,42.423-7.846,59.668-22.28l12.807,12.807c1.664,1.664,3.849,2.5,6.033,2.5c2.185,0,4.369-0.836,6.033-2.5
				c3.337-3.336,3.337-8.73,0-12.066l-12.523-12.523l25.054-25.055l18.711,18.711c1.664,1.664,3.849,2.5,6.033,2.5
				c2.185,0,4.369-0.836,6.033-2.5c3.336-3.337,3.336-8.738,0-12.066l-18.711-18.711l25.049-25.05l12.529,12.523
				c1.664,1.664,3.849,2.5,6.033,2.5c2.185,0,4.369-0.836,6.033-2.5c3.337-3.337,3.337-8.738,0-12.066l-12.529-12.524l25.056-25.057
				l18.707,18.713c1.664,1.664,3.849,2.5,6.033,2.5s4.369-0.836,6.033-2.5c3.337-3.328,3.337-8.73,0-12.066l-18.707-18.714
				l25.051-25.052l12.523,12.523c1.664,1.664,3.849,2.5,6.033,2.5s4.369-0.836,6.033-2.5c3.337-3.337,3.337-8.73,0-12.066
				l-12.523-12.523l25.058-25.058l18.708,18.715c1.664,1.664,3.849,2.5,6.033,2.5c2.185,0,4.369-0.836,6.033-2.5
				c3.337-3.328,3.337-8.73,0-12.066l-18.708-18.715l25.051-25.052l12.524,12.524c1.664,1.664,3.849,2.5,6.033,2.5
				c2.185,0,4.369-0.836,6.033-2.5c3.337-3.337,3.337-8.73,0-12.066l-12.525-12.525l25.054-25.055l18.713,18.713
				c1.664,1.664,3.849,2.5,6.033,2.5c2.185,0,4.369-0.836,6.033-2.5c3.337-3.337,3.337-8.738,0-12.066l-18.979-18.979
				c14.068-16.761,21.911-37.611,22.34-59.679h21.539c4.719,0,8.533-3.823,8.533-8.533
				C512.002,114.756,508.187,110.933,503.468,110.933z M441.766,181.902c-0.003,0.003-0.007,0.006-0.011,0.01
				c-0.006,0.006-0.01,0.012-0.016,0.018l-37.058,37.059c-0.015,0.015-0.032,0.028-0.048,0.043
				c-0.015,0.015-0.028,0.032-0.043,0.048l-74.126,74.129c-0.023,0.023-0.049,0.042-0.072,0.065
				c-0.023,0.023-0.042,0.049-0.065,0.072l-74.077,74.08c-0.032,0.031-0.067,0.058-0.099,0.09c-0.032,0.032-0.058,0.067-0.089,0.099
				l-36.972,36.973c-0.016,0.016-0.034,0.029-0.05,0.045c-0.016,0.016-0.029,0.033-0.044,0.049l-36.999,37
				c-0.025,0.025-0.053,0.045-0.078,0.07c-0.017,0.017-0.031,0.035-0.047,0.052c-30.801,30.721-80.824,30.706-111.59-0.022
				c-0.01-0.01-0.017-0.02-0.027-0.03c-0.009-0.009-0.02-0.017-0.029-0.026c-14.897-14.913-23.105-34.731-23.105-55.803
				c0-21.094,8.218-40.926,23.134-55.834l185.579-185.585c0.006-0.006,0.013-0.011,0.019-0.017s0.011-0.013,0.017-0.019
				l74.216-74.218c15.403-15.394,35.618-23.091,55.834-23.091c20.215,0,40.439,7.697,55.834,23.091
				c14.916,14.916,23.134,34.739,23.134,55.834C464.886,147.162,456.673,166.987,441.766,181.902z"/>
			<path d="M305.649,144.787c-17.809,17.809-31.206,42.726-18.56,55.381c1.698,1.698,3.977,2.577,6.238,2.577
				c2.159,0,4.309-0.794,5.931-2.424c3.345-3.328,3.456-8.576,0.128-11.913c-1.101-2.662,2.748-15.966,18.33-31.548
				c3.337-3.337,3.337-8.738,0-12.075C314.387,141.459,308.985,141.459,305.649,144.787z"/>
			<path d="M410.821,138.607c-4.241,4.258-25.685-0.649-49.8-24.747c-3.337-3.337-8.738-3.337-12.066,0
				c-3.337,3.328-3.337,8.738,0,12.066c17.732,17.724,40.03,31.198,57.131,31.198c6.545,0,12.331-1.98,16.802-6.451
				c3.328-3.328,3.328-8.73,0-12.066C419.551,135.271,414.149,135.271,410.821,138.607z"/>
			<path d="M225.223,237.595c-13.73,13.722-24.653,20.992-28.698,22.588c-2.901-0.836-6.144-0.128-8.422,2.159
				c-3.337,3.336-3.337,8.73,0,12.066c2.261,2.261,4.932,3.106,7.689,3.106c6.426,0,13.321-4.591,16.512-6.716
				c7.458-4.984,16.333-12.484,24.986-21.137c3.328-3.337,3.328-8.738,0-12.075C233.952,234.258,228.551,234.258,225.223,237.595z"
				/>
			<path d="M287.085,249.964c-43.153,43.145-34.278,52.028-30.942,55.373c1.664,1.673,3.857,2.509,6.042,2.509
				c2.185,0,4.369-0.836,6.033-2.5c2.159-2.159,2.927-5.197,2.278-7.979c1.946-4.582,11.187-17.869,28.655-35.337
				c3.337-3.328,3.337-8.73,0-12.066C295.815,246.636,290.422,246.636,287.085,249.964z"/>
			<path d="M144.794,342.767c-5.914,5.905-23.177,1.877-37.427-12.373c-3.328-3.337-8.73-3.337-12.066,0
				c-3.337,3.328-3.337,8.73,0,12.066c13.005,12.996,28.484,19.985,41.626,19.985c7.808,0,14.788-2.475,19.934-7.612
				c3.337-3.337,3.337-8.738,0-12.066C153.524,339.431,148.122,339.431,144.794,342.767z"/>
			<path d="M113.737,410.317c3.149-3.345,3.081-8.61-0.188-11.878c-3.328-3.32-8.738-3.328-12.075,0.008
				c-12.629,12.655,0.777,37.572,18.577,55.373c1.664,1.664,3.849,2.5,6.033,2.5c2.185,0,4.369-0.836,6.033-2.5
				c3.336-3.337,3.336-8.73,0-12.066C116.75,426.386,112.799,413.244,113.737,410.317z"/>
		</g>
	</g>
</g>
<g>
</g>
<g>
</g>
<g>
</g>
<g>
</g>
<g>
</g>
<g>
</g>
<g>
</g>
<g>
</g>
<g>
</g>
<g>
</g>
<g>
</g>
<g>
</g>
<g>
</g>
<g>
</g>
<g>
</g>
</svg>
