<?xml version="1.0" encoding="iso-8859-1"?>
<!-- Generator: Adobe Illustrator 19.0.0, SVG Export Plug-In . SVG Version: 6.00 Build 0)  -->
<svg version="1.1" id="Layer_1" xmlns="http://www.w3.org/2000/svg" xmlns:xlink="http://www.w3.org/1999/xlink" x="0px" y="0px"
	 viewBox="0 0 486.4 486.4" style="enable-background:new 0 0 486.4 486.4;" xml:space="preserve">
<g>
	<g>
		<g>
			<path d="M415.168,71.231C369.234,25.297,308.161,0,243.2,0S117.166,25.297,71.232,71.231C25.297,117.166,0,178.239,0,243.2
				s25.297,126.034,71.232,171.969C117.166,461.103,178.239,486.4,243.2,486.4s126.034-25.297,171.968-71.231
				C461.103,369.234,486.4,308.161,486.4,243.2S461.103,117.166,415.168,71.231z M243.2,467.4C119.576,467.4,19,366.824,19,243.2
				S119.576,19,243.2,19s224.2,100.576,224.2,224.2S366.824,467.4,243.2,467.4z"/>
			<path d="M407.513,333.891l-86.622-57.67c-5.696-3.794-12.547-5.139-19.285-3.785c-0.635,0.128-1.259,0.285-1.877,0.457
				c-0.093-0.181-0.18-0.363-0.278-0.543l-49.749-91.403c-3.936-7.231-10.869-11.799-18.425-13.042
				c-0.046-0.955-0.138-1.914-0.291-2.872c-1.08-6.788-4.724-12.741-10.264-16.76l-84.227-61.116
				c-11.464-8.319-27.557-5.758-35.877,5.705c-4.019,5.539-5.638,12.328-4.558,19.117c1.079,6.789,4.724,12.742,10.264,16.76
				l84.227,61.116c3.292,2.389,7.025,3.926,10.937,4.557c0.168,3.772,1.167,7.563,3.09,11.096l49.749,91.402c0,0,0,0,0,0.001
				c3.272,6.01,8.704,10.392,15.297,12.338c2.419,0.713,4.885,1.067,7.335,1.067c2.322,0,4.627-0.329,6.866-0.959
				c1.973,3.859,4.899,7.168,8.594,9.629l86.622,57.67c4.251,2.831,9.144,4.298,14.155,4.298c1.703,0,3.421-0.17,5.13-0.513
				c6.74-1.353,12.54-5.234,16.333-10.931c3.794-5.697,5.138-12.547,3.785-19.286C417.091,343.484,413.209,337.684,407.513,333.891z
				 M211.05,172.991c-2.165,2.985-6.356,3.652-9.341,1.485l-84.228-61.115c-1.431-1.039-2.375-2.589-2.657-4.366
				c-0.282-1.777,0.134-3.543,1.173-4.975c1.039-1.431,2.589-2.375,4.366-2.658c1.774-0.282,3.543,0.134,4.974,1.173l84.228,61.116
				C212.549,165.816,213.215,170.007,211.05,172.991z M280.086,290.505c-1.554,0.844-3.36,1.029-5.084,0.521
				c-1.726-0.509-3.141-1.645-3.987-3.199v0.001l-49.749-91.402c-1.763-3.239-0.562-7.309,2.677-9.071
				c1.553-0.845,3.358-1.031,5.084-0.521s3.141,1.645,3.987,3.198l49.749,91.402C284.526,284.673,283.325,288.743,280.086,290.505z
				 M398.845,358.98c-0.98,1.472-2.491,2.478-4.256,2.831c-1.763,0.354-3.545,0.009-5.018-0.97c0-0.001,0-0.001,0-0.001
				l-86.623-57.671c-1.472-0.98-2.478-2.491-2.831-4.255c-0.354-1.765-0.009-3.546,0.971-5.018c0.98-1.472,2.491-2.478,4.255-2.831
				c0.452-0.091,0.905-0.135,1.354-0.135c1.303,0,2.569,0.378,3.664,1.107l86.623,57.671c1.472,0.98,2.478,2.491,2.831,4.255
				C400.169,355.726,399.824,357.508,398.845,358.98z"/>
			<path d="M197.289,299.855c-1.041-2.961-2.669-5.548-4.698-7.695c6.026-8.743,4.907-20.837-3.103-28.265v-0.001l-82.065-76.092
				c-4.249-3.94-9.793-5.983-15.606-5.771c-5.814,0.22-11.186,2.681-15.127,6.931l-5.354,5.774c-3.94,4.249-5.989,9.791-5.77,15.605
				c0.219,5.815,2.681,11.187,6.93,15.127l78.413,72.706c-3.371,5.414-4.354,12.251-2.078,18.721l37.129,105.574
				c3.142,8.934,11.561,14.534,20.535,14.534c2.388,0,4.816-0.397,7.194-1.233l7.429-2.612
				c11.312-3.978,17.279-16.417,13.301-27.729L197.289,299.855z M85.416,211.537c-0.714-0.661-0.847-1.481-0.864-1.911
				c-0.016-0.43,0.055-1.259,0.716-1.971l5.354-5.774c0.661-0.713,1.481-0.846,1.911-0.862c0.032-0.001,0.068-0.002,0.105-0.002
				c0.45,0,1.207,0.108,1.866,0.718l82.065,76.091c1.092,1.013,1.159,2.791,0.148,3.882l-5.355,5.775
				c-1.012,1.093-2.79,1.16-3.881,0.147L85.416,211.537z M214.815,415.235l-7.428,2.612c-1.403,0.49-3.008-0.276-3.503-1.68
				l-37.129-105.575c-0.322-0.917-0.058-1.704,0.128-2.092c0.186-0.389,0.635-1.088,1.551-1.41l7.428-2.612
				c0.289-0.101,0.587-0.149,0.882-0.149c1.136,0,2.228,0.714,2.62,1.829l37.13,105.574
				C216.989,413.137,216.219,414.742,214.815,415.235z"/>
			<path d="M353.853,73.758c-4.389-2.871-10.279-1.642-13.151,2.748c-2.873,4.391-1.643,10.279,2.748,13.152
				c52.034,34.047,83.1,91.446,83.1,153.542c0,5.246,4.253,9.5,9.5,9.5s9.5-4.254,9.5-9.501
				C445.55,174.67,411.271,111.328,353.853,73.758z"/>
			<path d="M243.2,59.85c15.609,0,31.109,1.963,46.07,5.834c0.798,0.207,1.598,0.305,2.386,0.305c4.226,0,8.083-2.841,9.191-7.123
				c1.315-5.079-1.737-10.262-6.817-11.576c-16.514-4.274-33.615-6.44-50.83-6.44c-5.247,0-9.5,4.254-9.5,9.5
				C233.7,55.596,237.953,59.85,243.2,59.85z"/>
		</g>
	</g>
</g>
<g>
</g>
<g>
</g>
<g>
</g>
<g>
</g>
<g>
</g>
<g>
</g>
<g>
</g>
<g>
</g>
<g>
</g>
<g>
</g>
<g>
</g>
<g>
</g>
<g>
</g>
<g>
</g>
<g>
</g>
</svg>
